<?xml version="1.0" encoding="utf-8"?>
<!-- Generator: Adobe Illustrator 27.2.0, SVG Export Plug-In . SVG Version: 6.00 Build 0)  -->
<svg version="1.1" id="Layer_1" xmlns="http://www.w3.org/2000/svg" xmlns:xlink="http://www.w3.org/1999/xlink" x="0px" y="0px"
	 viewBox="0 0 167.8 124.9" style="enable-background:new 0 0 167.8 124.9;" xml:space="preserve">
<style type="text/css">
	.st0{fill:#B6FF1B;}
</style>
<g>
	<path class="st0" d="M157.6,38c-6.5-6.5-15.3-10.1-24.4-10.1c-32.9,0-65.8,0-98.7,0c-9.2,0-17.9,3.6-24.4,10.1
		C3.6,44.5,0,53.3,0,62.5c0,9.2,3.6,17.9,10.1,24.4S25.4,97,34.5,97c32.9,0,65.8,0,98.7,0c9.2,0,17.9-3.6,24.4-10.1
		s10.1-15.3,10.1-24.4C167.8,53.3,164.1,44.5,157.6,38z M133.2,92.1c-32.9,0-65.8,0-98.7,0c-16.3,0-29.6-13.3-29.6-29.6
		c0-16.3,13.3-29.6,29.6-29.6c32.9,0,65.8,0,98.7,0c16.3,0,29.6,13.3,29.6,29.6C162.8,78.8,149.6,92.1,133.2,92.1z"/>
	<path class="st0" d="M140.1,38.8c23.7,6.9,23.7,40.5,0,47.4C124.3,74.3,124.3,50.6,140.1,38.8z"/>
	<path class="st0" d="M85.1,37.8c16.2,0,32.4,0,48.6,0c-13.8,13.6-13.8,35.8,0,49.3c-16.2,0-32.4,0-48.6,0c0-5,0-9.9,0-14.9
		c11.5-1.4,11.5-18.1,0-19.6C85.1,47.7,85.1,42.8,85.1,37.8z"/>
	<path class="st0" d="M27.6,38.8c15.8,11.8,15.8,35.5,0,47.4C3.9,79.2,3.9,45.7,27.6,38.8z"/>
	<path class="st0" d="M34,87.1c13.8-13.6,13.8-35.8,0-49.3c16.2,0,32.4,0,48.6,0c0,5,0,9.9,0,14.9c-11.5,1.4-11.5,18.1,0,19.6
		c0,5,0,9.9,0,14.9C66.5,87.1,50.2,87.1,34,87.1z"/>
	<path class="st0" d="M82.7,69.8c-8.2-1.4-8.2-13.2,0-14.6C82.7,60,82.7,64.9,82.7,69.8z"/>
	<path class="st0" d="M85.1,55.2c8.2,1.4,8.2,13.2,0,14.6C85.1,64.9,85.1,60,85.1,55.2z"/>
</g>
</svg>
