<?xml version="1.0" encoding="utf-8"?>
<!-- Generator: Adobe Illustrator 27.2.0, SVG Export Plug-In . SVG Version: 6.00 Build 0)  -->
<svg version="1.1" id="Layer_1" xmlns="http://www.w3.org/2000/svg" xmlns:xlink="http://www.w3.org/1999/xlink" x="0px" y="0px"
	 viewBox="0 0 800 800" style="enable-background:new 0 0 800 800;" xml:space="preserve">
<style type="text/css">
	.st0{fill:#CE0000;}
</style>
<g>
	<path class="st0" d="M333.3,333.3c-18.4,0-33.3,14.9-33.3,33.3v200c0,18.4,14.9,33.3,33.3,33.3s33.3-14.9,33.3-33.3v-200
		C366.7,348.3,351.7,333.3,333.3,333.3z"/>
	<path class="st0" d="M466.7,333.3c-18.4,0-33.3,14.9-33.3,33.3v200c0,18.4,14.9,33.3,33.3,33.3s33.3-14.9,33.3-33.3v-200
		C500,348.3,485.1,333.3,466.7,333.3z"/>
	<path class="st0" d="M666.7,200H600c0,0,0,0,0,0h-66.7v-33.3c0-55.1-44.9-100-100-100h-66.7c-55.1,0-100,44.9-100,100V200H200
		c0,0,0,0,0,0h-66.6c-18.4,0-33.3,14.9-33.3,33.3s14.9,33.3,33.3,33.3h33.3V600c0,73.5,59.8,133.3,133.3,133.3h200
		c73.5,0,133.3-59.8,133.3-133.3V266.7h33.3c18.4,0,33.3-14.9,33.3-33.3S685.1,200,666.7,200z M333.3,166.7
		c0-18.4,15-33.3,33.3-33.3h66.7c18.4,0,33.3,15,33.3,33.3V200H333.3V166.7z M566.7,600c0,36.8-29.9,66.7-66.7,66.7H300
		c-36.8,0-66.7-29.9-66.7-66.7V266.7H300h200h66.7V600z"/>
</g>
</svg>
