<?xml version="1.0" encoding="utf-8"?>
<!-- Generator: Adobe Illustrator 27.2.0, SVG Export Plug-In . SVG Version: 6.00 Build 0)  -->
<svg version="1.1" id="Layer_1" xmlns="http://www.w3.org/2000/svg" xmlns:xlink="http://www.w3.org/1999/xlink" x="0px" y="0px"
	 viewBox="0 0 800 800" style="enable-background:new 0 0 800 800;" xml:space="preserve">
<style type="text/css">
	.st0{fill:#B6FF1B;}
</style>
<g>
	<path class="st0" d="M258.6,666.7h-66.7c-18.4,0-33.3-15-33.3-33.3v-400c0-18.4,15-33.3,33.3-33.3h33.3v33.3
		c0,18.4,14.9,33.3,33.3,33.3h200c18.4,0,33.3-14.9,33.3-33.3V200h33.3c18.4,0,33.3,15,33.3,33.3V300c0,18.4,14.9,33.3,33.3,33.3
		s33.3-14.9,33.3-33.3v-66.7c0-55.1-44.9-100-100-100h-39.1c-13.8-38.8-50.8-66.7-94.3-66.7h-66.7c-43.5,0-80.5,27.9-94.3,66.7
		h-39.1c-55.1,0-100,44.9-100,100v400c0,55.1,44.9,100,100,100h66.7c18.4,0,33.3-14.9,33.3-33.3S277,666.7,258.6,666.7z
		 M291.9,166.7c0-18.4,15-33.3,33.3-33.3h66.7c18.4,0,33.3,15,33.3,33.3V200H291.9V166.7z"/>
	<path class="st0" d="M698.4,442.7l-66.2-66.2c-13-13-34.1-13-47.1,0L382.5,578.9c-9.3,9.3-15.6,21.1-18.2,34.1l-14.6,72.9
		c-2.2,10.9,1.2,22.2,9.1,30.1c6.3,6.3,14.8,9.8,23.6,9.8c2.2,0,4.4-0.2,6.5-0.6l72.9-14.6c12.9-2.6,24.7-8.9,34.1-18.2l202.5-202.5
		c6.3-6.3,9.8-14.7,9.8-23.6C708.1,457.4,704.6,448.9,698.4,442.7z M448.7,645.1l-23.9,4.8l4.8-23.9l178.9-178.9l19.1,19.1
		L448.7,645.1z"/>
</g>
</svg>
