<?xml version="1.0" encoding="utf-8"?>
<!-- Generator: Adobe Illustrator 27.2.0, SVG Export Plug-In . SVG Version: 6.00 Build 0)  -->
<svg version="1.1" id="Layer_1" xmlns="http://www.w3.org/2000/svg" xmlns:xlink="http://www.w3.org/1999/xlink" x="0px" y="0px"
	 viewBox="0 0 33.9 33.9" style="enable-background:new 0 0 33.9 33.9;" xml:space="preserve">
<style type="text/css">
	.st0{fill:#B6FF1B;}
</style>
<g id="XMLID_00000094604481679235798160000011534027435705059756_">
	<path class="st0" d="M16.9,33.9C7.6,33.9,0,26.3,0,16.9S7.6,0,16.9,0s16.9,7.6,16.9,16.9S26.3,33.9,16.9,33.9z M16.9,1.3
		c-8.6,0-15.7,7-15.7,15.7s7,15.7,15.7,15.7s15.7-7,15.7-15.7S25.6,1.3,16.9,1.3z"/>
</g>
<g id="XMLID_00000149371916776875603930000003450480015519541894_">
	<path class="st0" d="M14.5,26.8h4v-9.9h2.8l0.3-3.3h-3.1c0,0,0-1.2,0-1.9c0-0.8,0.2-1.1,0.9-1.1c0.6,0,2.1,0,2.1,0V7.1
		c0,0-2.3,0-2.7,0c-3,0-4.3,1.3-4.3,3.8c0,2.2,0,2.7,0,2.7h-2.1v3.4h2.1V26.8z"/>
</g>
</svg>
