<?xml version="1.0" encoding="utf-8"?>
<!-- Generator: Adobe Illustrator 27.2.0, SVG Export Plug-In . SVG Version: 6.00 Build 0)  -->
<svg version="1.1" id="Predeterminada" xmlns="http://www.w3.org/2000/svg" xmlns:xlink="http://www.w3.org/1999/xlink" x="0px"
	 y="0px" viewBox="0 0 45.7 39.6" style="enable-background:new 0 0 45.7 39.6;" xml:space="preserve">
<style type="text/css">
	.st0{fill:#B6FF1B;}
</style>
<path class="st0" d="M30.8,8.1c1.3-1.3,1.3-3.4,0-4.7c-1.3-1.3-3.4-1.3-4.7,0c-4.7,4.7-9.3,9.4-14,14.1c-1.3,1.3-1.3,3.4,0,4.7
	c4.7,4.7,9.3,9.4,14,14.1c1.3,1.3,3.4,1.3,4.7,0c1.3-1.3,1.3-3.4,0-4.7c-2.8-2.8-5.5-5.6-8.3-8.3c6.6,0,13.2,0,19.9,0
	c1.9,0,3.4-1.5,3.4-3.4c0-1.9-1.5-3.4-3.4-3.4c-6.6,0-13.2,0-19.9,0C25.2,13.6,28,10.8,30.8,8.1z"/>
<path class="st0" d="M6.6,3.3C6.6,1.5,5.1,0,3.3,0C1.5,0,0,1.5,0,3.3c0,5.5,0,11,0,16.5c0,5.5,0,11,0,16.5c0,1.8,1.5,3.3,3.3,3.3
	c1.8,0,3.3-1.5,3.3-3.3c0-5.5,0-11,0-16.5C6.6,14.3,6.6,8.8,6.6,3.3z"/>
</svg>
