<?xml version="1.0" encoding="utf-8"?>
<!-- Generator: Adobe Illustrator 27.2.0, SVG Export Plug-In . SVG Version: 6.00 Build 0)  -->
<svg version="1.1" id="Layer_1" xmlns="http://www.w3.org/2000/svg" xmlns:xlink="http://www.w3.org/1999/xlink" x="0px" y="0px"
	 viewBox="0 0 33.9 33.9" style="enable-background:new 0 0 33.9 33.9;" xml:space="preserve">
<style type="text/css">
	.st0{fill:#B6FF1B;}
</style>
<g id="XMLID_00000068658494202075276710000016547566763545913228_">
	<path class="st0" d="M16.9,33.9C7.6,33.9,0,26.3,0,16.9S7.6,0,16.9,0s16.9,7.6,16.9,16.9S26.3,33.9,16.9,33.9z M16.9,1.3
		c-8.6,0-15.7,7-15.7,15.7s7,15.7,15.7,15.7s15.7-7,15.7-15.7S25.6,1.3,16.9,1.3z"/>
</g>
<g id="XMLID_00000063609862116169287850000004688203914803208590_">
	<g id="XMLID_00000150803726519608173400000012353949800643602826_">
		<g>
			<g>
				<path class="st0" d="M16.9,9.6c2.4,0,2.7,0,3.6,0.1c0.9,0,1.3,0.2,1.7,0.3c0.4,0.2,0.7,0.4,1,0.7c0.3,0.3,0.5,0.6,0.7,1
					c0.1,0.3,0.3,0.8,0.3,1.7c0,0.9,0.1,1.2,0.1,3.6s0,2.7-0.1,3.6c0,0.9-0.2,1.3-0.3,1.7c-0.2,0.4-0.4,0.7-0.7,1
					c-0.3,0.3-0.6,0.5-1,0.7c-0.3,0.1-0.8,0.3-1.7,0.3c-0.9,0-1.2,0.1-3.6,0.1s-2.7,0-3.6-0.1c-0.9,0-1.3-0.2-1.7-0.3
					c-0.4-0.2-0.7-0.4-1-0.7c-0.3-0.3-0.5-0.6-0.7-1c-0.1-0.3-0.3-0.8-0.3-1.7c0-0.9-0.1-1.2-0.1-3.6s0-2.7,0.1-3.6
					c0-0.9,0.2-1.3,0.3-1.7c0.2-0.4,0.4-0.7,0.7-1c0.3-0.3,0.6-0.5,1-0.7c0.3-0.1,0.8-0.3,1.7-0.3C14.3,9.6,14.6,9.6,16.9,9.6
					 M16.9,8c-2.4,0-2.7,0-3.7,0.1c-1,0-1.6,0.2-2.2,0.4C10.5,8.7,10,9,9.5,9.5c-0.5,0.5-0.8,1-1,1.6c-0.2,0.6-0.4,1.2-0.4,2.2
					c0,1-0.1,1.3-0.1,3.7c0,2.4,0,2.7,0.1,3.7c0,1,0.2,1.6,0.4,2.2c0.2,0.6,0.5,1.1,1,1.6c0.5,0.5,1,0.8,1.6,1
					c0.6,0.2,1.2,0.4,2.2,0.4c1,0,1.3,0.1,3.7,0.1c2.4,0,2.7,0,3.7-0.1c1,0,1.6-0.2,2.2-0.4c0.6-0.2,1.1-0.5,1.6-1s0.8-1,1-1.6
					c0.2-0.6,0.4-1.2,0.4-2.2c0-1,0.1-1.3,0.1-3.7c0-2.4,0-2.7-0.1-3.7c0-1-0.2-1.6-0.4-2.2c-0.2-0.6-0.5-1.1-1-1.6s-1-0.8-1.6-1
					c-0.6-0.2-1.2-0.4-2.2-0.4C19.7,8,19.4,8,16.9,8"/>
			</g>
		</g>
	</g>
	<g id="XMLID_00000126306424312669206290000002713008041292819130_">
		<g>
			<g>
				<path class="st0" d="M16.9,12.4c-2.5,0-4.6,2.1-4.6,4.6c0,2.5,2.1,4.6,4.6,4.6c2.5,0,4.6-2.1,4.6-4.6
					C21.5,14.4,19.5,12.4,16.9,12.4 M16.9,19.9c-1.6,0-3-1.3-3-3c0-1.6,1.3-3,3-3c1.6,0,3,1.3,3,3C19.9,18.6,18.6,19.9,16.9,19.9"/>
			</g>
		</g>
	</g>
	<g id="XMLID_00000177459994743941447410000006014051959137183104_">
		<g>
			<path class="st0" d="M22.8,12.2c0,0.6-0.5,1.1-1.1,1.1c-0.6,0-1.1-0.5-1.1-1.1c0-0.6,0.5-1.1,1.1-1.1
				C22.3,11.1,22.8,11.6,22.8,12.2"/>
		</g>
	</g>
</g>
</svg>
