<?xml version="1.0" encoding="utf-8"?>
<!-- Generator: Adobe Illustrator 27.2.0, SVG Export Plug-In . SVG Version: 6.00 Build 0)  -->
<svg version="1.1" id="Layer_1" xmlns="http://www.w3.org/2000/svg" xmlns:xlink="http://www.w3.org/1999/xlink" x="0px" y="0px"
	 viewBox="0 0 2608.8 459.9" style="enable-background:new 0 0 2608.8 459.9;" xml:space="preserve">
<style type="text/css">
	.st0{enable-background:new    ;}
	.st1{fill:none;stroke:#B9D432;stroke-width:2;stroke-miterlimit:10;}
	.st2{fill:none;}
</style>
<g class="st0">
	<path class="st1" d="M66.3,354.3c-10.4,0-20.6-1.8-30.6-5.3c-9.9-3.5-19-8.7-27.1-15.6l31.7-38.2c3,2.4,6.6,4.6,11,6.6
		c4.3,2,9.3,2.9,15,2.9c7.4,0,14.2-1.9,20.3-5.8c6.1-3.9,11-8.9,14.7-15.2c3.7-6.3,5.6-13.2,5.6-20.6V64.8h49.5v198.3
		c0,16.6-4.1,31.8-12.2,45.6c-8.1,13.7-19,24.8-32.7,33.1C97.9,350.2,82.8,354.3,66.3,354.3z"/>
</g>
<g class="st0">
	<path class="st1" d="M319,354.3c-22.7,0-42.7-5.5-59.8-16.6c-17.1-11.1-30.4-26-39.9-44.8c-9.5-18.7-14.2-39.5-14.2-62.4V64.8h49.5
		v165.6c0,13.5,2.5,26,7.6,37.2c5.1,11.3,12.4,20.3,21.9,27s21.1,10,34.8,10c13.8,0,25.4-3.3,34.9-10c9.5-6.7,16.7-15.7,21.6-27
		c4.9-11.3,7.4-23.7,7.4-37.2V64.8h49.5v165.6c0,17.2-2.7,33.3-8.1,48.2c-5.4,15-13.1,28.1-23.1,39.5c-10,11.4-22,20.2-35.8,26.6
		C351.5,351.1,336.1,354.3,319,354.3z"/>
</g>
<g class="st0">
	<path class="st1" d="M476.5,349V64.8h178.2v49.5H526.1V172h102.1v49.5H526.1v78h128.7V349H476.5z"/>
</g>
<g class="st0">
	<path class="st1" d="M829.5,354.3c-19.8,0-38.1-3.9-55.1-11.6c-17-7.7-31.8-18.4-44.4-32c-12.6-13.6-22.4-29.3-29.5-47.1
		c-7.1-17.8-10.7-36.8-10.7-57.1c0-21.4,3.8-41,11.5-58.9c7.6-17.9,18.1-33.4,31.4-46.5C746,88.1,761,77.9,777.9,70.7
		c16.8-7.2,34.4-10.8,52.7-10.8c20.4,0,40.3,4.8,59.6,14.3s36.3,24.3,51.1,44.2l-44.3,23.8c-9.1-11.1-19.5-19.4-31.2-24.9
		c-11.7-5.5-23.6-8.2-35.8-8.2c-11.9,0-23.3,2.4-34.2,7.3c-10.9,4.9-20.6,11.7-29,20.6c-8.5,8.9-15.1,19.3-20,31.3
		s-7.3,25.1-7.3,39.3c0,13.4,2.4,26,7.1,37.9c4.7,11.8,11.3,22.2,19.6,31.1c8.3,8.9,18,15.8,28.9,20.8c11,5,22.7,7.5,35.3,7.5
		c8.4,0,16.6-1.3,24.7-4c8.1-2.6,15.6-6.5,22.7-11.5c7.1-5,13.5-11.1,19.1-18.3c5.6-7.2,10.3-15.3,14.1-24.4h-51.8v-43.2h110
		c0.5,20.7-2.7,40.1-9.7,58.3c-7,18.1-17,34.2-29.8,48.1c-12.9,13.9-27.8,24.8-44.9,32.7C867.7,350.4,849.3,354.3,829.5,354.3z"/>
</g>
<g class="st0">
	<path class="st1" d="M1083.5,64.8h57L1243.9,349h-52.6l-18.3-50.3h-121.8L1033,349h-52.6L1083.5,64.8z M1069.3,249.2h85.5
		L1111.9,132L1069.3,249.2z"/>
</g>
<g class="st0">
	<path class="st1" d="M1362,349l39.8-284.2h167.9l-6.9,49.5h-118.3l-8.1,57.7h98.9l-6.9,49.5h-98.9L1411.5,349H1362z"/>
</g>
<g class="st0">
	<path class="st1" d="M1671.4,354.3c-22.7,0-41.9-5.5-57.4-16.6c-15.6-11.1-26.8-26-33.6-44.8c-6.8-18.7-8.6-39.5-5.4-62.4
		l23.1-165.6h49.5l-23.1,165.6c-1.9,13.5-1.1,26,2.3,37.2c3.5,11.3,9.5,20.3,18.1,27c8.6,6.7,19.7,10,33.4,10
		c13.8,0,25.9-3.3,36.4-10c10.5-6.7,19-15.7,25.5-27c6.5-11.3,10.7-23.7,12.6-37.2l23.1-165.6h49.5l-23.1,165.6
		c-2.4,17.2-7.4,33.3-14.9,48.2c-7.5,15-17.1,28.1-28.6,39.5c-11.6,11.4-24.8,20.2-39.6,26.6
		C1704.4,351.1,1688.4,354.3,1671.4,354.3z"/>
</g>
<g class="st0">
	<path class="st1" d="M1829.7,349l39.8-284.2h49.5l-32.9,234.7h118.3l-6.9,49.5H1829.7z"/>
</g>
<g class="st0">
	<path class="st1" d="M2042.3,349L2082,64.8h103.5c15,0,28.2,3.1,39.5,9.2c11.3,6.2,19.7,15,25.3,26.4c5.5,11.4,7.2,24.9,4.9,40.5
		c-0.9,6.9-2.9,13.9-5.9,20.9c-3,7-7,13.4-12.1,19c-5.1,5.6-11.1,9.8-18.2,12.5c8.5,2.2,15.2,6.1,20,11.8c4.8,5.7,8.2,12.4,10.3,20
		c2,7.6,3,15.4,3,23.3s-0.5,15.3-1.4,22c-2,15-7.6,28.4-16.7,40.2c-9.1,11.8-20.4,21.1-33.9,28c-13.5,6.9-27.8,10.4-42.9,10.4
		H2042.3z M2097.7,306.6h60.5c8,0,15.6-2,22.7-5.9c7.2-3.9,13.2-9.3,18.2-16.2c4.9-6.9,7.9-14.7,9-23.5c1.1-7.6,0.1-14.8-2.8-21.5
		c-3-6.8-7.5-12.2-13.5-16.4c-6-4.2-13-6.3-21-6.3h-60.5L2097.7,306.6z M2116.4,174.9h48.3c9.9,0,18.8-3.1,26.9-9.3
		c8.1-6.2,12.8-14.5,14.1-24.8c1.6-11-0.8-19.2-7.2-24.9c-6.4-5.6-14.6-8.4-24.5-8.4h-48.3L2116.4,174.9z"/>
</g>
<g class="st0">
	<path class="st1" d="M2403.8,354.3c-19.2,0-36.8-3.8-52.7-11.5c-15.9-7.6-29.3-18.2-40.2-31.8c-10.9-13.5-18.7-29.2-23.5-47
		c-4.8-17.8-5.8-36.8-2.9-57.1c2.8-20.3,9.1-39.3,18.9-57.1c9.7-17.8,22-33.5,36.8-47c14.8-13.5,31.2-24.1,49.2-31.8
		c18-7.6,36.6-11.5,55.8-11.5c19.4,0,36.9,3.8,52.8,11.5c15.8,7.6,29.2,18.2,40.1,31.8c10.9,13.5,18.7,29.2,23.5,47
		c4.8,17.8,5.8,36.8,2.9,57.1c-2.8,20.3-9.1,39.3-18.9,57.1c-9.7,17.8-22,33.5-36.8,47c-14.8,13.5-31.2,24.1-49.1,31.8
		C2441.8,350.5,2423.2,354.3,2403.8,354.3z M2410.7,304.8c12.4,0,24.5-2.6,36.2-7.7c11.7-5.1,22.3-12.2,31.9-21.2
		c9.5-9,17.5-19.4,23.9-31.2c6.4-11.8,10.5-24.4,12.4-37.8c1.9-13.4,1.3-26-1.7-37.9c-3-11.8-8.1-22.2-15.1-31.2
		c-7-8.9-15.7-16-25.9-21.1c-10.2-5.1-21.6-7.7-34-7.7c-12.5,0-24.5,2.6-36.2,7.7c-11.7,5.1-22.3,12.2-31.9,21.2
		c-9.5,9-17.5,19.4-23.9,31.2c-6.4,11.8-10.5,24.4-12.4,37.8c-1.9,13.5-1.3,26.2,1.7,38c3,11.8,8.1,22.2,15.1,31.2
		c7,9,15.7,16,25.9,21.1C2386.9,302.3,2398.3,304.8,2410.7,304.8z"/>
</g>
<rect x="8.8" class="st2" width="2600" height="459.9"/>
</svg>
