<?xml version="1.0" encoding="UTF-8"?>
<svg id="Layer_1" data-name="Layer 1" xmlns="http://www.w3.org/2000/svg" viewBox="0 0 319.9 57.76">
  <defs>
    <style>
      .cls-1 {
        fill: #b6ff1b;
      }
    </style>
  </defs>
  <g>
    <path class="cls-1" d="m10.44,13.23h6.37v32.79c0,3.82-.94,6.73-2.83,8.74-1.89,2.01-4.66,3.01-8.3,3.01-1.96,0-3.85-.42-5.67-1.25l2.67-5.44c.99.45,1.99.67,2.99.67,1.45,0,2.61-.5,3.47-1.51.86-1.01,1.29-2.3,1.29-3.87V13.23Zm3.14-5c-1.12,0-2.08-.39-2.86-1.18-.78-.78-1.18-1.75-1.18-2.89s.39-2.1,1.16-2.88c.77-.77,1.73-1.16,2.88-1.16s2.11.39,2.91,1.18c.79.78,1.19,1.74,1.19,2.86s-.4,2.08-1.19,2.88c-.79.79-1.76,1.19-2.91,1.19Z"/>
    <path class="cls-1" d="m54.22,13.4h1.72v31.02h-6.08v-3.52c-1.4,1.4-3.02,2.49-4.88,3.29-1.86.79-3.82,1.19-5.87,1.19-4.13,0-7.29-1.21-9.48-3.63-2.19-2.42-3.28-5.86-3.28-10.32V13.4h6.45v17.56c0,2.66.7,4.72,2.09,6.19,1.4,1.47,3.31,2.21,5.76,2.21,2.65,0,4.81-.83,6.45-2.49,1.65-1.66,2.47-4.06,2.47-7.22V13.4h4.65Z"/>
    <path class="cls-1" d="m78.96,39.54c2.02,0,3.87-.42,5.57-1.25,1.7-.83,3.12-1.97,4.26-3.4l4.77,4.04c-1.74,2.02-3.88,3.6-6.4,4.74-2.52,1.14-5.25,1.72-8.2,1.72-4.75,0-8.67-1.57-11.77-4.72-3.1-3.15-4.65-7.12-4.65-11.9,0-3.02.68-5.77,2.05-8.26,1.37-2.48,3.28-4.44,5.74-5.89,2.46-1.44,5.22-2.17,8.29-2.17s5.83.72,8.3,2.17c2.47,1.44,4.39,3.41,5.77,5.89,1.38,2.48,2.06,5.23,2.06,8.26h-.06c0,.99-.06,1.93-.17,2.82h-25.5c.48,2.4,1.6,4.33,3.34,5.79,1.74,1.45,3.94,2.18,6.6,2.18Zm-.35-21.19c-2.52,0-4.61.69-6.26,2.08-1.66,1.39-2.75,3.23-3.27,5.54h19.19c-.52-2.31-1.63-4.15-3.31-5.54-1.69-1.39-3.8-2.08-6.34-2.08Z"/>
    <path class="cls-1" d="m125.79,13.46h6.08v27.15c0,5.5-1.39,9.74-4.16,12.7-2.77,2.97-6.57,4.45-11.4,4.45-5.89,0-10.53-2.15-13.93-6.45l4.71-4.1c2.17,3.02,5.15,4.53,8.92,4.53,2.91,0,5.21-.92,6.92-2.75,1.71-1.83,2.56-4.41,2.56-7.75v-.17c-2.85,2.91-6.29,4.36-10.32,4.36-4.46,0-8.15-1.54-11.08-4.62-2.93-3.08-4.39-7.03-4.39-11.83s1.46-8.76,4.39-11.85c2.93-3.09,6.62-4.64,11.08-4.64,4.15,0,7.68,1.59,10.61,4.77v-3.81Zm-9.88,25.96c2.79,0,5.14-.96,7.04-2.88,1.9-1.92,2.85-4.44,2.85-7.56s-.94-5.63-2.83-7.54c-1.89-1.91-4.24-2.86-7.05-2.86s-5.1.98-6.99,2.95c-1.89,1.97-2.83,4.45-2.83,7.46s.94,5.49,2.83,7.47c1.89,1.98,4.22,2.97,6.99,2.97Z"/>
    <path class="cls-1" d="m164.54,13.4h6.13v31.08h-6.13v-3.81c-2.83,3.14-6.37,4.71-10.61,4.71-4.46,0-8.15-1.54-11.08-4.62-2.93-3.08-4.39-7.03-4.39-11.83s1.46-8.76,4.39-11.85c2.93-3.09,6.62-4.64,11.08-4.64,4.21,0,7.74,1.59,10.61,4.77v-3.81Zm-9.88,25.96c2.79,0,5.14-.96,7.04-2.88,1.9-1.92,2.85-4.44,2.85-7.56s-.94-5.63-2.83-7.54c-1.89-1.91-4.24-2.86-7.05-2.86s-5.1.98-6.99,2.95c-1.89,1.97-2.83,4.45-2.83,7.46s.94,5.49,2.83,7.47c1.89,1.98,4.22,2.97,6.99,2.97Z"/>
    <path class="cls-1" d="m192.51,5.84c-1.45,0-2.61.5-3.47,1.5-.86,1-1.29,2.28-1.29,3.85v2.27h7.56v6.02h-7.56v25.06h-6.37v-25.06h-4.39v-6.02h4.39v-1.72c0-3.82.94-6.73,2.83-8.74,1.89-2.01,4.66-3.01,8.3-3.01,1.96,0,3.85.42,5.67,1.25l-2.62,5.23c-.95-.43-1.97-.64-3.05-.64Z"/>
    <path class="cls-1" d="m230.19,13.4h1.71v31.02h-6.08v-3.52c-1.4,1.4-3.02,2.49-4.88,3.29-1.86.79-3.82,1.19-5.87,1.19-4.13,0-7.29-1.21-9.48-3.63-2.19-2.42-3.28-5.86-3.28-10.32V13.4h6.45v17.56c0,2.66.7,4.72,2.09,6.19,1.4,1.47,3.31,2.21,5.76,2.21,2.65,0,4.81-.83,6.45-2.49,1.65-1.66,2.47-4.06,2.47-7.22V13.4h4.65Z"/>
    <path class="cls-1" d="m247.25,44.54h-6.42V.9h6.42v43.64Z"/>
  </g>
  <g>
    <path class="cls-1" d="m271.94,20.27c4.46,4.37,4.46,11.56,0,15.93.05,0,.11,0,.16,0h15.54v-4.81c-3.72-.47-3.72-5.86,0-6.32v-4.81h-15.54c-.05,0-.11,0-.16,0Z"/>
    <path class="cls-1" d="m288.44,25.88v4.71c2.66-.45,2.66-4.26,0-4.71Z"/>
    <path class="cls-1" d="m269.87,20.58c-7.65,2.23-7.65,13.07,0,15.3,5.1-3.82,5.1-11.47,0-15.3Z"/>
    <path class="cls-1" d="m287.64,30.59v-4.71c-2.66.45-2.66,4.26,0,4.71Z"/>
    <path class="cls-1" d="m304.43,11.15v-.05h-31.57c-3.95,0-7.57,1.38-10.43,3.67l.1-13.92h-6.37v43.64h6.05l.03-3.81c2.88,2.38,6.58,3.81,10.61,3.81.41,0,.82-.02,1.22-.05h27.9c.4.03.81.05,1.22.05,9.22,0,16.69-7.47,16.69-16.69s-6.82-16.01-15.47-16.64Zm-.46,26.64h-31.87c-5.28,0-9.56-4.28-9.56-9.56s4.28-9.56,9.56-9.56h31.87c5.28,0,9.56,4.28,9.56,9.56s-4.28,9.56-9.56,9.56Z"/>
    <path class="cls-1" d="m306.2,20.58c-5.1,3.82-5.1,11.47,0,15.3,7.65-2.23,7.65-13.07,0-15.3Z"/>
    <path class="cls-1" d="m304.13,20.27c-.05,0-.11,0-.16,0h-15.54v4.81c3.72.47,3.72,5.86,0,6.32v4.81h15.54c.05,0,.11,0,.16,0-4.46-4.37-4.46-11.56,0-15.93Z"/>
  </g>
</svg>