<?xml version="1.0" encoding="utf-8"?>
<!-- Generator: Adobe Illustrator 27.2.0, SVG Export Plug-In . SVG Version: 6.00 Build 0)  -->
<svg version="1.1" id="Layer_1" xmlns="http://www.w3.org/2000/svg" xmlns:xlink="http://www.w3.org/1999/xlink" x="0px" y="0px"
	 viewBox="0 0 167.8 124.9" style="enable-background:new 0 0 167.8 124.9;" xml:space="preserve">
<style type="text/css">
	.st0{fill:#B6FF1B;}
</style>
<circle class="st0" cx="77.5" cy="18" r="11"/>
<path class="st0" d="M52.1,96.1c-1.3,4.7-2.7,9.3-4,14c-1.2,4.2,1.2,8.5,5.4,9.7c4.2,1.1,8.5-1.4,9.6-5.6c1.9-7.5,3.7-14.9,5.6-22.4
	c0.8-3.2-0.1-6.7-2.4-9.1c-4.2-4.3-8.4-8.7-12.6-13c-1.5-1.5-1.5-4,0.1-5.5c2.9-2.9,5.8-5.8,8.7-8.6c0.5,1.5,1,3,1.6,4.5
	c1,3,3.5,5.3,6.5,6.2c6,1.7,11.9,3.4,17.9,5.1c7.5,2.1,10.9-8.9,3.6-11.4c-6-2-12.1-4.1-18.1-6.1c-0.5-1.6-0.9-3.2-1.4-4.8
	c0.4-1.6,0.7-3.1,1.1-4.7c1.9-8.4-3.4-16.8-11.9-18.6c-6.4-1.4-12.9-2.7-19.3-4.1c-5-1.1-10.1,0.7-13.3,4.7c-3.2,4-6.5,7.9-9.7,11.9
	c-4.9,6,3.8,13.5,9,7.7c3.2-3.6,6.5-7.2,9.7-10.8c1.1-1.2,2.1-1.5,3.6-1.2c2.3,0.5,4.6,0.9,7,1.4C42.9,41,37.2,46.5,31.5,52.1
	C28,55.5,27,60.6,28.9,65c1.2,2.9,2.5,5.7,3.7,8.6c1.2,2.8,0.1,5.9-2.6,7.4c-8.8,4.8-17.7,9.7-26.5,14.5c-7.6,4.1-1.6,15.6,6.1,11.7
	c13.5-6.7,27-13.5,40.6-20.2"/>
<path class="st0" d="M52.1,96.1c1-3.4,0.3-6.4-2-9.1"/>
<ellipse transform="matrix(0.9732 -0.2298 0.2298 0.9732 0.6843 27.9459)" class="st0" cx="120.3" cy="11" rx="11" ry="11"/>
<path class="st0" d="M156.3,56.9c1.2,3.1,4.6,4.6,7.7,3.4c3.1-1.2,4.6-4.6,3.4-7.7c-2.1-5.7-4.2-11.3-6.3-17
	c-1.4-3.8-4.8-6.6-8.8-7.4c-6.7-1.2-13.3-2.5-20-3.7c-8.2-1.5-16.1,3.7-18,11.8c-0.2,0.8-0.4,1.6-0.5,2.3c-0.9,3.8-4.4,6.4-8.2,6
	c-5.1-0.4-10.1-0.9-15.2-1.3c-7.4-0.6-8.6,10.3-1.3,11.4c6.2,0.9,12.4,1.8,18.6,2.8c3.9,0.6,7.8-0.8,10.4-3.8
	c0.5-0.6,1.1-1.2,1.6-1.8c2.4,5.3,4.8,10.5,7.2,15.8c-2.8,1.6-5.5,3.1-8.3,4.7c-1.9,1.1-3.1,2.4-4,4.3
	c-5.1,10.9-10.1,21.8-15.2,32.7c-3.5,7.6,7.6,13.2,11.6,5.8c4.4-8,8.8-16.1,13.2-24.1c7.4,8.5,14.7,17,22.1,25.5
	c5.7,6.6,15.6-1.7,10.3-8.5c-6.3-8.1-12.7-16.1-19-24.2c3.8-3.6,7.5-7.2,11.3-10.7c3-2.8,3.8-7.2,2.2-10.9
	c-3.5-7.9-7-15.8-10.4-23.8c4.8-1,8.1,0.6,9.9,4.8c2,4.6,4.1,9.2,6.1,13.8"/>
<g>
	<path class="st0" d="M84.2,110.2l-2.4-1.8l0,0c-0.4-0.3-1-0.3-1.4,0l-2.4,1.8c-0.4,0.3-0.6,0.9-0.4,1.4l0.9,2.9
		c0.2,0.5,0.6,0.8,1.2,0.8h3c0.5,0,1-0.3,1.2-0.8l0.9-2.9C84.8,111,84.7,110.5,84.2,110.2z"/>
	<path class="st0" d="M81.1,98.9c-7.2,0-13,5.8-13,13c0,7.2,5.8,13,13,13s13-5.8,13-13C94.1,104.8,88.3,98.9,81.1,98.9z M90.2,117.3
		l-4.5-0.3c-0.3,0-0.5,0.1-0.7,0.2c-0.2,0.2-0.4,0.4-0.4,0.6l-1.1,4.4c-0.7,0.2-1.5,0.2-2.3,0.2c-0.8,0-1.5-0.1-2.3-0.2l-1.1-4.4
		c-0.1-0.3-0.2-0.5-0.4-0.6c-0.2-0.2-0.5-0.2-0.7-0.2l-4.5,0.3c-0.8-1.3-1.3-2.8-1.4-4.3l3.9-2.4c0.2-0.1,0.4-0.4,0.5-0.6
		s0.1-0.5,0-0.8l-1.7-4.2c1-1.1,2.3-2.1,3.7-2.7l3.5,2.9c0.2,0.2,0.5,0.3,0.7,0.3c0.3,0,0.5-0.1,0.7-0.3l3.5-2.9
		c1.4,0.6,2.7,1.5,3.7,2.7l-1.7,4.2c-0.1,0.2-0.1,0.5,0,0.8c0.1,0.2,0.2,0.5,0.5,0.6l3.9,2.4C91.4,114.5,90.9,116,90.2,117.3z"/>
</g>
</svg>
