<?xml version="1.0" encoding="utf-8"?>
<!-- Generator: Adobe Illustrator 27.2.0, SVG Export Plug-In . SVG Version: 6.00 Build 0)  -->
<svg version="1.1" id="Predeterminada" xmlns="http://www.w3.org/2000/svg" xmlns:xlink="http://www.w3.org/1999/xlink" x="0px"
	 y="0px" viewBox="0 0 130.2 23.5" style="enable-background:new 0 0 130.2 23.5;" xml:space="preserve">
<style type="text/css">
	.st0{fill:#B6FF1B;}
</style>
<g>
	<g>
		<g>
			<path class="st0" d="M4.2,5.4h2.6v13.4c0,1.6-0.4,2.7-1.2,3.6c-0.8,0.8-1.9,1.2-3.4,1.2c-0.8,0-1.6-0.2-2.3-0.5l1.1-2.2
				c0.4,0.2,0.8,0.3,1.2,0.3c0.6,0,1.1-0.2,1.4-0.6c0.4-0.4,0.5-0.9,0.5-1.6V5.4z M5.5,3.3c-0.5,0-0.8-0.2-1.2-0.5
				C4,2.6,3.9,2.2,3.9,1.7c0-0.5,0.2-0.9,0.5-1.2C4.7,0.2,5.1,0,5.5,0C6,0,6.4,0.2,6.7,0.5C7,0.8,7.2,1.2,7.2,1.7
				c0,0.5-0.2,0.8-0.5,1.2C6.4,3.2,6,3.3,5.5,3.3z"/>
			<path class="st0" d="M22.1,5.5h0.7v12.6h-2.5v-1.4c-0.6,0.6-1.2,1-2,1.3c-0.8,0.3-1.6,0.5-2.4,0.5c-1.7,0-3-0.5-3.9-1.5
				c-0.9-1-1.3-2.4-1.3-4.2V5.5h2.6v7.1c0,1.1,0.3,1.9,0.9,2.5c0.6,0.6,1.3,0.9,2.3,0.9c1.1,0,2-0.3,2.6-1c0.7-0.7,1-1.7,1-2.9V5.5
				H22.1z"/>
			<path class="st0" d="M32.1,16.1c0.8,0,1.6-0.2,2.3-0.5c0.7-0.3,1.3-0.8,1.7-1.4l1.9,1.6c-0.7,0.8-1.6,1.5-2.6,1.9
				c-1,0.5-2.1,0.7-3.3,0.7c-1.9,0-3.5-0.6-4.8-1.9c-1.3-1.3-1.9-2.9-1.9-4.8c0-1.2,0.3-2.4,0.8-3.4c0.6-1,1.3-1.8,2.3-2.4
				c1-0.6,2.1-0.9,3.4-0.9c1.2,0,2.4,0.3,3.4,0.9c1,0.6,1.8,1.4,2.3,2.4c0.6,1,0.8,2.1,0.8,3.4h0c0,0.4,0,0.8-0.1,1.1H28.1
				c0.2,1,0.7,1.8,1.4,2.4C30.2,15.8,31.1,16.1,32.1,16.1z M32,7.5c-1,0-1.9,0.3-2.6,0.8c-0.7,0.6-1.1,1.3-1.3,2.3h7.8
				c-0.2-0.9-0.7-1.7-1.3-2.3C33.9,7.8,33,7.5,32,7.5z"/>
			<path class="st0" d="M51.2,5.5h2.5v11.1c0,2.2-0.6,4-1.7,5.2c-1.1,1.2-2.7,1.8-4.6,1.8c-2.4,0-4.3-0.9-5.7-2.6l1.9-1.7
				c0.9,1.2,2.1,1.8,3.6,1.8c1.2,0,2.1-0.4,2.8-1.1c0.7-0.7,1-1.8,1-3.2v-0.1c-1.2,1.2-2.6,1.8-4.2,1.8c-1.8,0-3.3-0.6-4.5-1.9
				c-1.2-1.3-1.8-2.9-1.8-4.8c0-2,0.6-3.6,1.8-4.8c1.2-1.3,2.7-1.9,4.5-1.9c1.7,0,3.1,0.6,4.3,1.9V5.5z M47.2,16
				c1.1,0,2.1-0.4,2.9-1.2c0.8-0.8,1.2-1.8,1.2-3.1c0-1.3-0.4-2.3-1.2-3.1c-0.8-0.8-1.7-1.2-2.9-1.2c-1.1,0-2.1,0.4-2.8,1.2
				c-0.8,0.8-1.2,1.8-1.2,3c0,1.2,0.4,2.2,1.2,3C45.1,15.6,46.1,16,47.2,16z"/>
			<path class="st0" d="M67,5.5h2.5v12.7H67v-1.6c-1.2,1.3-2.6,1.9-4.3,1.9c-1.8,0-3.3-0.6-4.5-1.9c-1.2-1.3-1.8-2.9-1.8-4.8
				c0-2,0.6-3.6,1.8-4.8c1.2-1.3,2.7-1.9,4.5-1.9c1.7,0,3.2,0.6,4.3,1.9V5.5z M63,16c1.1,0,2.1-0.4,2.9-1.2c0.8-0.8,1.2-1.8,1.2-3.1
				c0-1.3-0.4-2.3-1.2-3.1c-0.8-0.8-1.7-1.2-2.9-1.2c-1.1,0-2.1,0.4-2.8,1.2c-0.8,0.8-1.2,1.8-1.2,3c0,1.2,0.4,2.2,1.2,3
				C60.9,15.6,61.8,16,63,16z"/>
			<path class="st0" d="M78.4,2.4c-0.6,0-1.1,0.2-1.4,0.6c-0.4,0.4-0.5,0.9-0.5,1.6v0.9h3.1v2.5h-3.1v10.2h-2.6v-10V7.9h-1.8V5.5
				h1.8V4.8c0-1.6,0.4-2.7,1.2-3.6C75.8,0.4,76.9,0,78.4,0c0.8,0,1.6,0.2,2.3,0.5l-1.1,2.1C79.2,2.5,78.8,2.4,78.4,2.4z"/>
			<path class="st0" d="M93.7,5.5h0.7v12.6h-2.5v-1.4c-0.6,0.6-1.2,1-2,1.3c-0.8,0.3-1.6,0.5-2.4,0.5c-1.7,0-3-0.5-3.9-1.5
				c-0.9-1-1.3-2.4-1.3-4.2V5.5H85v7.1c0,1.1,0.3,1.9,0.9,2.5c0.6,0.6,1.3,0.9,2.3,0.9c1.1,0,2-0.3,2.6-1c0.7-0.7,1-1.7,1-2.9V5.5
				H93.7z"/>
			<path class="st0" d="M100.7,18.1h-2.6V0.4h2.6V18.1z"/>
			<polygon class="st0" points="106.9,0.3 104.3,0.3 104.3,18.1 106.8,18.1 			"/>
		</g>
		<g>
			<path class="st0" d="M110.7,8.3c1.8,1.8,1.8,4.7,0,6.5c0,0,0,0,0.1,0c2.1,0,4.2,0,6.3,0c0-0.7,0-1.3,0-2c-1.5-0.2-1.5-2.4,0-2.6
				c0-0.7,0-1.3,0-2C115,8.3,112.9,8.3,110.7,8.3C110.8,8.3,110.7,8.3,110.7,8.3z"/>
			<path class="st0" d="M117.4,10.5c0,0.6,0,1.3,0,1.9C118.5,12.3,118.5,10.7,117.4,10.5z"/>
			<path class="st0" d="M109.9,8.4c-3.1,0.9-3.1,5.3,0,6.2C112,13.1,112,9.9,109.9,8.4z"/>
			<path class="st0" d="M117.1,12.5c0-0.6,0-1.3,0-1.9C116,10.7,116,12.3,117.1,12.5z"/>
			<path class="st0" d="M123.9,4.5L123.9,4.5l-12.9,0c-3.8,0-6.8,3-6.8,6.8c0,3.8,3,6.8,6.8,6.8c0.2,0,0.3,0,0.5,0H123
				c0.2,0,0.3,0,0.5,0c3.8,0,6.8-3,6.8-6.8C130.2,7.7,127.5,4.8,123.9,4.5z M123.8,15.4c-4.3,0-8.7,0-13,0c-2.1,0-3.9-1.7-3.9-3.9
				c0-2.1,1.7-3.9,3.9-3.9c4.3,0,8.7,0,13,0c2.1,0,3.9,1.7,3.9,3.9C127.7,13.6,125.9,15.4,123.8,15.4z"/>
			<path class="st0" d="M124.7,8.4c-2.1,1.6-2.1,4.7,0,6.2C127.8,13.7,127.8,9.3,124.7,8.4z"/>
			<path class="st0" d="M123.8,8.3C123.8,8.3,123.8,8.3,123.8,8.3c-2.2,0-4.3,0-6.4,0c0,0.7,0,1.3,0,2c1.5,0.2,1.5,2.4,0,2.6
				c0,0.7,0,1.3,0,2c2.1,0,4.2,0,6.3,0c0,0,0,0,0.1,0C122,13,122,10,123.8,8.3z"/>
		</g>
	</g>
</g>
</svg>
