<?xml version="1.0" encoding="utf-8"?>
<!-- Generator: Adobe Illustrator 27.2.0, SVG Export Plug-In . SVG Version: 6.00 Build 0)  -->
<svg version="1.1" id="Layer_1" xmlns="http://www.w3.org/2000/svg" xmlns:xlink="http://www.w3.org/1999/xlink" x="0px" y="0px"
	 viewBox="0 0 167.8 124.9" style="enable-background:new 0 0 167.8 124.9;" xml:space="preserve">
<style type="text/css">
	.st0{fill:#B6FF1B;}
</style>
<g>
	<path class="st0" d="M88.7,41.9c-1,0.6-2.7,1.1-4.7,1c-2.6-0.1-5-0.9-8.3-2c-0.6-0.2-1.1-0.4-1.8-0.6c-3.1-1-6.4,0.6-7.4,3.7
		c-1,3.1,0.6,6.4,3.7,7.4c0.5,0.1,1,0.3,1.5,0.5c1.8,0.6,3.9,1.3,6.3,1.9v2.8c0,3.3,2.6,5.9,5.9,5.9s5.9-2.6,5.9-5.9V54
		c1.8-0.4,3.6-1.1,5.2-2.2c3.7-2.3,6.6-6.4,6.5-11.9c-0.1-5.4-3.1-8.9-6.5-11c-2.9-1.8-6.6-2.9-9.3-3.7l-0.2-0.1
		c-3.2-1-5.3-1.6-6.7-2.5c-0.6-0.3-0.8-0.6-0.8-0.6c0,0,0-0.1,0-0.1c0-0.4,0.1-0.6,0.2-0.7c0.1-0.1,0.3-0.4,0.9-0.7
		c1.1-0.7,3-1.1,4.7-1.1c2.2,0,4.7,0.5,7.4,1.2c3.1,0.8,6.4-1,7.2-4.2c0.8-3.1-1-6.4-4.2-7.2c-1.4-0.4-2.9-0.7-4.5-1V5.7h0
		c0-3.3-2.6-5.9-5.9-5.9S78,2.5,78,5.7v2.7c-1.7,0.4-3.4,1.1-4.9,2c-3.6,2.2-6.8,6-6.8,11.6c0,5.4,3.2,8.8,6.5,10.8
		c2.8,1.7,6.3,2.7,8.9,3.5l0.5,0.1c3.1,1,5.2,1.6,6.6,2.5c1,0.6,1,0.9,1,1.1v0c0,0.6-0.1,0.9-0.2,1C89.4,41.3,89.2,41.6,88.7,41.9z"
		/>
	<path class="st0" d="M152.4,82.1c-3.2-4.4-9.3-5.3-13.7-2.1l-29.3,21.6H80c-2.2,0-3.9-1.8-3.9-3.9s1.8-3.9,3.9-3.9h3.9h15.7
		c4.3,0,7.8-3.5,7.8-7.8c0-4.3-3.5-7.8-7.8-7.8H83.9H80H60.8c-7.1,0-14,2.4-19.6,6.8l-11,8.8h-9c-4.3,0-7.8,3.5-7.8,7.8v15.7
		c0,4.3,3.5,7.8,7.8,7.8h39.1h39.2c7.1,0,14-2.3,19.7-6.5l31-22.8C154.7,92.6,155.6,86.4,152.4,82.1z"/>
</g>
</svg>
