<?xml version="1.0" encoding="utf-8"?>
<!-- Generator: Adobe Illustrator 27.2.0, SVG Export Plug-In . SVG Version: 6.00 Build 0)  -->
<svg version="1.1" id="Layer_1" xmlns="http://www.w3.org/2000/svg" xmlns:xlink="http://www.w3.org/1999/xlink" x="0px" y="0px"
	 viewBox="0 0 33.9 33.9" style="enable-background:new 0 0 33.9 33.9;" xml:space="preserve">
<style type="text/css">
	.st0{fill:#B6FF1B;}
</style>
<g id="XMLID_00000008853931359351788830000011015239735969021064_">
	<path class="st0" d="M16.9,33.9C7.6,33.9,0,26.3,0,16.9S7.6,0,16.9,0s16.9,7.6,16.9,16.9S26.3,33.9,16.9,33.9z M16.9,1.3
		c-8.6,0-15.7,7-15.7,15.7s7,15.7,15.7,15.7s15.7-7,15.7-15.7S25.6,1.3,16.9,1.3z"/>
</g>
<g id="XMLID_00000030461440404285549720000010008545308698039712_">
	<path class="st0" d="M8.3,22.4c1.6,1,3.5,1.6,5.5,1.6c6.6,0,10.4-5.6,10.1-10.6c0.7-0.5,1.3-1.1,1.8-1.8c-0.6,0.3-1.3,0.5-2,0.6
		c0.7-0.4,1.3-1.1,1.6-2c-0.7,0.4-1.5,0.7-2.3,0.9c-0.7-0.7-1.6-1.1-2.6-1.1c-2.3,0-4,2.1-3.5,4.4c-3-0.1-5.6-1.6-7.3-3.7
		c-0.9,1.6-0.5,3.7,1.1,4.8c-0.6,0-1.1-0.2-1.6-0.4c0,1.7,1.1,3.2,2.9,3.5c-0.5,0.1-1.1,0.2-1.6,0.1c0.5,1.4,1.8,2.4,3.3,2.5
		C12,22.1,10.2,22.6,8.3,22.4z"/>
</g>
</svg>
